<svg width="16" height="16" viewBox="0 0 16 16" fill="none" xmlns="http://www.w3.org/2000/svg">
<path fill-rule="evenodd" clip-rule="evenodd" d="M13.3333 1.33335L12.6666 1.33335V0.666674C12.6666 0.298186 12.3685 0 12 0C11.6315 0 11.3333 0.298186 11.3333 0.666674V1.33335L8.66663 1.33335V0.666674C8.66663 0.298186 8.36844 0 7.99996 0C7.63147 0 7.33329 0.298186 7.33329 0.666674V1.33335L4.66661 1.33335V0.666674C4.66661 0.298186 4.36842 0 3.99994 0C3.63145 0 3.33327 0.298186 3.33327 0.666674V1.33335H2.6666C1.95956 1.33335 1.28117 1.6146 0.781254 2.11461C0.281335 2.61461 0 3.293 0 3.99996L0 13.3334C0 14.0404 0.281251 14.7188 0.781254 15.2187C1.28126 15.7187 1.95964 16 2.6666 16L13.3333 16C14.0404 16 14.7187 15.7187 15.2187 15.2187C15.7186 14.7187 15.9999 14.0403 15.9999 13.3334L15.9999 3.99996C15.9999 3.29292 15.7187 2.61453 15.2187 2.11461C14.7187 1.61468 14.0403 1.33335 13.3333 1.33335ZM2.66656 2.66669H3.33323V3.33336C3.33323 3.70185 3.63142 4.00004 3.9999 4.00004C4.36839 4.00004 4.66657 3.70185 4.66657 3.33336L4.66657 2.66669L7.33325 2.66669L7.33325 3.33336C7.33325 3.70185 7.63144 4.00004 7.99992 4.00004C8.36841 4.00004 8.66659 3.70185 8.66659 3.33336V2.66669L11.3333 2.66669V3.33336C11.3333 3.70185 11.6315 4.00004 11.9999 4.00004C12.3684 4.00004 12.6666 3.70185 12.6666 3.33336V2.66669H13.3333C13.6868 2.66669 14.026 2.80731 14.276 3.05733C14.526 3.30734 14.6666 3.64653 14.6666 4.00004V5.33338L1.33322 5.33338L1.33322 4.00004C1.33322 3.26369 1.93023 2.66669 2.66656 2.66669ZM2.66656 14.6668C1.93023 14.6668 1.33322 14.0698 1.33322 13.3335L1.33322 6.66673L14.6666 6.66673V13.3335C14.6666 13.687 14.526 14.0262 14.276 14.2762C14.026 14.5262 13.6868 14.6668 13.3333 14.6668L2.66656 14.6668ZM4.66657 9.33343C4.66657 10.2221 3.33323 10.2221 3.33323 9.33343C3.33323 8.44476 4.66657 8.44476 4.66657 9.33343ZM4.66657 12.0001C4.66657 12.8888 3.33323 12.8888 3.33323 12.0001C3.33323 11.1114 4.66657 11.1114 4.66657 12.0001ZM7.33326 9.33343C7.33326 10.2221 5.99992 10.2221 5.99992 9.33343C5.99992 8.44476 7.33326 8.44476 7.33326 9.33343ZM7.33326 12.0001C7.33326 12.8888 5.99992 12.8888 5.99992 12.0001C5.99992 11.1114 7.33326 11.1114 7.33326 12.0001ZM9.99993 9.33343C9.99993 10.2221 8.66659 10.2221 8.66659 9.33343C8.66659 8.44476 9.99993 8.44476 9.99993 9.33343ZM9.99993 12.0001C9.99993 12.8888 8.66659 12.8888 8.66659 12.0001C8.66659 11.1114 9.99993 11.1114 9.99993 12.0001ZM12.6666 9.33343C12.6666 10.2221 11.3333 10.2221 11.3333 9.33343C11.3333 8.44476 12.6666 8.44476 12.6666 9.33343ZM12.6666 12.0001C12.6666 12.8888 11.3333 12.8888 11.3333 12.0001C11.3333 11.1114 12.6666 11.1114 12.6666 12.0001Z" fill="#FF7F5A"/>
</svg>
