<svg width="801" height="355" viewBox="0 0 801 355" fill="none" xmlns="http://www.w3.org/2000/svg">
<path d="M92.3697 331.029C100.594 331.628 108.099 332.689 115.552 332.642C123.005 332.55 130.459 331.306 137.861 330.614C144.851 339.557 151.225 348.316 161.454 353.387C161.3 354.216 161.351 354.493 161.197 354.585C160.992 354.77 160.683 355 160.426 355C122.594 355 84.7622 355 46.519 355C39.6825 343.936 31.0469 334.072 18.8132 327.249C22.2057 320.841 25.4955 314.941 28.4768 308.856C31.5609 302.633 32.7946 295.995 32.3834 289.218C31.9722 282.488 31.4067 275.804 30.8927 268.428C40.3507 262.712 46.6218 253.723 52.6358 243.627C63.1219 245.978 73.8135 248.422 84.5566 250.773C95.1968 253.124 105.94 254.875 117.968 253.815C130.973 231.688 146.805 211.036 172.866 198.636C172.814 198.497 172.763 198.267 172.608 198.129C172.403 197.944 172.146 197.668 171.889 197.668C170.295 197.622 168.702 197.575 167.108 197.575H17.7852C13.93 191.168 7.71033 186.65 0 183.285V143.687C7.60752 141.244 13.3132 136.219 17.5795 129.351H261.791C259.889 125.617 258.399 122.712 256.702 119.439C251.665 117.227 246.422 114.922 241.487 112.755C231.824 88.0467 235.473 77.1215 257.525 64.3985C259.838 66.5651 262.202 68.7778 264.721 71.0827C262.511 72.9266 259.581 74.6783 257.782 77.1215C255.931 79.6108 255.212 82.7455 254.132 85.2809C257.73 103.443 272.586 114.415 285.539 126.216C283.329 132.716 281.17 138.985 278.703 146.084C274.385 147.237 268.576 148.435 265.184 153.275H27.7058C23.5422 158.807 23.131 164.247 26.9347 170.378H35.4675C83.1687 170.378 130.819 170.608 178.52 170.193C189.057 170.101 197.847 173.697 207.099 176.97C228.174 184.345 249.558 190.615 271.866 194.441C281.735 196.1 291.45 197.806 301.525 197.852C304.558 197.852 307.693 199.373 310.623 199.143C327.894 197.714 345.68 198.267 361.203 189.416C364.596 187.48 368.091 185.682 371.483 183.884C394.46 196.515 415.381 211.313 435.325 227.078C455.166 242.798 473.825 259.716 491.867 278.892C488.372 269.995 463.031 242.798 440.105 222.007C420.984 204.675 400.68 188.725 377.652 174.711C379.708 171.991 381.712 169.317 383.614 166.874H406.077C408.082 165.906 410.035 165.03 411.783 164.201C417.643 155.304 417.231 152.353 408.647 144.701C406.283 144.609 403.558 144.471 399.755 144.286C409.213 131.194 418.105 118.84 427.46 105.887C430.082 103.628 434.194 103.397 438.306 103.582C442.521 103.766 446.428 103.075 449.923 100.77C453.933 94.9153 453.933 94.9153 453.47 87.1248C451.208 85.0043 448.792 82.7455 446.171 80.2562C454.292 69.0544 462.414 57.8065 470.741 46.3742C477.783 42.0871 486.367 41.7183 494.489 40.2893C507.082 38.0305 519.933 37.6156 532.629 36.2788C543.681 35.1263 554.578 35.7256 565.27 35.0802C568.457 38.6759 571.387 41.9488 574.008 44.8991C600.326 45.821 625.359 49.7855 650.34 56.1009C650.649 69.8381 650.7 83.3909 647.102 98.3727C638.312 104.596 635.485 114.553 637.335 126.308C640.317 131.978 643.247 138.201 650.7 141.935C649.723 146.361 648.747 150.648 647.822 154.612C646.896 155.258 646.382 155.903 645.868 155.903C636.359 155.949 626.901 155.949 616.569 155.949C611.737 148.666 605.106 142.535 591.742 145.162L583.209 148.988C581.513 151.892 579.765 154.843 578.017 157.747C577.812 167.427 578.583 169.271 586.088 177.431C573.905 196.239 571.387 216.43 582.644 236.344C593.644 255.797 611.943 267.276 636.462 269.903C667.149 316.646 718.345 327.848 764.864 310.792C770.005 317.891 774.425 325.359 780.336 331.721C786.299 338.128 793.804 343.383 801 349.514H561.672C555.092 339.649 546.097 331.398 529.442 327.572H498.755C491.559 318.905 483.9 311.069 473.877 305.399C466.372 301.158 458.25 298.853 449.306 298.346C434.297 297.516 419.904 299.221 406.643 305.86C403.044 307.657 400.32 306.735 396.979 305.445C375.544 297.378 354.007 289.495 332.521 281.612C331.698 281.289 330.67 281.428 329.334 281.289C321.521 286.729 324.553 294.519 324.091 301.665C328.049 309.824 334.937 315.264 340.18 317.015C360.586 322.409 377.138 320.104 393.946 318.49C398.521 328.309 404.689 336.883 412.091 344.49C411.577 345.227 411.474 345.458 411.269 345.642C411.063 345.827 410.755 346.103 410.498 346.103C357.759 346.103 304.969 346.103 251.408 346.103C245.034 342.922 237.992 339.419 230.95 335.915C238.043 326.834 237.992 321.717 230.95 316.693C224.113 311.806 218.459 313.097 210.029 321.625C209.824 323.238 209.618 325.175 209.361 327.341C200.468 324.207 191.884 321.164 182.529 317.845C184.945 313.604 186.95 309.271 189.725 305.352C196.253 296.271 204.221 288.25 213.062 280.921C215.838 278.616 218.665 276.311 220.67 272.853C219.436 273.268 217.945 273.361 217.02 274.098C207.87 281.059 198.515 287.743 189.931 295.165C183.403 300.789 177.954 307.381 171.683 313.881C163.87 311.53 155.543 309.363 147.576 306.505C134.262 301.711 120.332 298.807 106.351 297.193C96.9959 296.087 86.8183 294.75 77.9771 299.221C74.0705 304.569 74.0705 310.193 74.4303 315.909C75.8182 318.352 77.2061 320.841 78.7995 323.699C82.9631 326.097 87.5379 328.494 92.3697 331.029Z" fill="#A3915D" fill-opacity="0.07"/>
<path d="M251.923 45.3143C250.586 29.0878 250.175 13.8755 264.465 1.15245C272.432 0.0921957 281.685 2.07441 291.605 0C293.661 1.98221 296.437 4.60979 299.47 7.51397C297.722 9.86496 296.026 12.1238 294.021 14.7974C287.699 13.1379 280.914 10.9252 274.797 15.4889C271.096 18.2548 270.273 22.127 270.839 26.368C274.797 35.1266 283.432 40.013 291.451 45.3604C295.203 47.8497 299.11 50.2468 303.171 52.2751C310.573 55.9629 315.97 61.0337 318.643 68.3633C319.311 70.2072 320.648 71.8667 321.624 73.5262C323.526 83.4834 324.914 93.3944 319.465 103.305H309.75C305.689 104.965 302.811 105.979 300.035 107.27C297.362 108.561 294.844 110.174 291.811 111.88C289.755 109.206 287.647 106.486 285.488 103.766C288.11 100.447 290.474 97.5432 292.788 94.5469C297.054 88.969 296.797 76.1999 291.554 70.576C287.545 66.2888 282.816 62.3705 277.675 59.0976C271.096 54.9026 263.848 51.5375 256.857 47.8497C255.418 47.066 253.773 46.2823 251.923 45.3143Z" fill="#A3915D" fill-opacity="0.07"/>
</svg>
